<?xml version="1.0" standalone="no"?>
<!DOCTYPE svg PUBLIC "-//W3C//DTD SVG 20010904//EN"
 "http://www.w3.org/TR/2001/REC-SVG-20010904/DTD/svg10.dtd">
<svg version="1.0" xmlns="http://www.w3.org/2000/svg"
 width="156.000000pt" height="89.000000pt" viewBox="0 0 156.000000 89.000000"
 preserveAspectRatio="xMidYMid meet">

<g transform="translate(0.000000,89.000000) scale(0.100000,-0.100000)"
fill="#000000" stroke="none">
<path d="M0 445 l0 -445 780 0 780 0 0 445 0 445 -780 0 -780 0 0 -445z m350
235 l0 -30 -60 0 -60 0 0 -30 c0 -27 -3 -30 -30 -30 -27 0 -30 -3 -30 -30 l0
-30 60 0 60 0 0 -30 0 -30 -60 0 -60 0 0 -30 c0 -27 3 -30 30 -30 27 0 30 -3
30 -30 l0 -30 60 0 60 0 0 -30 0 -30 -120 0 -120 0 0 210 0 210 120 0 120 0 0
-30z m360 -90 l0 -120 -90 0 -90 0 0 -90 0 -90 -30 0 -30 0 0 180 0 180 -30 0
c-27 0 -30 3 -30 30 l0 30 150 0 150 0 0 -120z m360 -90 l0 -210 -150 0 -150
0 0 210 0 210 150 0 150 0 0 -210z m360 90 l0 -120 -90 0 -90 0 0 -90 0 -90
-30 0 -30 0 0 180 0 180 -30 0 c-27 0 -30 3 -30 30 l0 30 150 0 150 0 0 -120z"/>
<path d="M530 590 l0 -60 60 0 60 0 0 30 c0 27 -3 30 -30 30 -27 0 -30 3 -30
30 0 27 -3 30 -30 30 l-30 0 0 -60z"/>
<path d="M890 620 c0 -27 -3 -30 -30 -30 l-30 0 0 -90 0 -90 30 0 c27 0 30 -3
30 -30 0 -27 3 -30 30 -30 27 0 30 3 30 30 0 27 3 30 30 30 l30 0 0 90 0 90
-30 0 c-27 0 -30 3 -30 30 0 27 -3 30 -30 30 -27 0 -30 -3 -30 -30z"/>
<path d="M1250 590 l0 -60 60 0 60 0 0 30 c0 27 -3 30 -30 30 -27 0 -30 3 -30
30 0 27 -3 30 -30 30 l-30 0 0 -60z"/>
</g>
</svg>
